<!--?xml version="1.0" encoding="utf-8"?-->
<!-- Generator: Adobe Illustrator 18.1.1, SVG Export Plug-In . SVG Version: 6.00 Build 0)  -->

<svg version="1.1" id="_x32_" xmlns="http://www.w3.org/2000/svg" xmlns:xlink="http://www.w3.org/1999/xlink" x="0px" y="0px" viewBox="0 0 512 512" style="width: 32px; height: 32px; opacity: 1;" xml:space="preserve">
<style type="text/css">
	.st0{fill:#4B4B4B;}
</style>
<g>
	<path class="st0" d="M89.067,408.578c-4.079,3.099-32.129,41.067-32.534,69.974c0,0.292-0.038,0.575-0.038,0.867
		c0,1.129,0.057,2.251,0.17,3.343c0.01,0.132,0,0.302,0.01,0.434h0.056C58.614,499.416,72.366,512,89.067,512
		c16.709,0,30.461-12.584,32.345-28.803h0.047c0.018-0.132,0-0.302,0.018-0.434c0.113-1.092,0.18-2.214,0.18-3.343
		c0-0.292-0.047-0.575-0.047-0.867C121.204,449.646,93.154,411.678,89.067,408.578z" style="fill: rgb(75, 75, 75);"></path>
	<path class="st0" d="M381.066,196.198c-9.014,0.019-14.778-1.318-17.624-2.468c-2.9-1.243-3.08-1.667-3.833-2.505
		c-0.47-0.64-1.187-1.753-1.997-4.182c-1.074-3.231-2.119-8.872-2.1-16.973c0-29.999,0-13.356,0-24.414
		c9.711-2.346,9.748-8.797,9.748-19.46c0-10.145-16.426-21.569-34.21-26.712V82.736c26.703,0,75.286,0,90.781,0
		c21.758,0,14.458-29.566,0-34.822c-17.096-6.208-47.519-17.944-76.2-24.16C341.11,10.003,328.301,0,313.033,0
		c-15.278,0-28.069,10.003-32.6,23.755c-28.68,6.216-59.096,17.952-76.2,24.16c-14.448,5.256-21.749,34.822,0,34.822
		c15.504,0,64.068,0,90.771,0v16.748c-17.773,5.161-34.2,16.567-34.2,26.712c0,10.22,0,16.596,8.553,19.158
		c0,15.335,0,4.144,0,24.716c0.009,8.101-1.037,13.742-2.101,16.973c-0.81,2.43-1.536,3.542-2.006,4.182
		c-0.763,0.838-0.933,1.262-3.824,2.505c-2.844,1.15-8.609,2.487-17.624,2.468c-29.519,0-52.784,0-80.56,0
		c-16.182,0.019-31.582,1.988-46.219,6.848c-10.954,3.635-21.429,9.005-30.659,16.191c-13.912,10.719-24.348,25.506-30.348,41.077
		c-6.094,15.644-8.327,31.902-8.345,48.309c0,44.12,0,51.551,0,51.551h86.156c0,0,0-7.432,0-51.551
		c-0.01-7.46,0.97-12.734,2.025-15.833c0.801-2.354,1.516-3.503,2.1-4.238c0.914-1.045,1.498-1.836,5.04-3.306
		c3.466-1.394,10.06-2.901,20.251-2.882c20.27,0,31.996,0,50.844,0c29.708,0,26.684,45.343,97.214,45.343
		c70.52,0,74.485-45.343,104.183-45.343c14.93,0,44.873,0,48.848,0v-86.166C450.023,196.198,393.885,196.198,381.066,196.198z" style="fill: rgb(75, 75, 75);"></path>
</g>
</svg>
